<svg width="268" height="433" viewBox="0 0 268 433" fill="none" xmlns="http://www.w3.org/2000/svg">
<circle opacity="0.9" cx="133.417" cy="133.417" r="105.452" fill="#CAEEFF" fill-opacity="0.3"/>
<rect opacity="0.6" x="191.444" y="16.313" width="52.8253" height="223.062" transform="rotate(56.319 191.444 16.313)" fill="white"/>
<rect opacity="0.6" x="244.058" y="101.812" width="26.5055" height="222.825" transform="rotate(56.319 244.058 101.812)" fill="white"/>
<path d="M133.999 0C208.005 0 267.999 59.9934 267.999 133.999C267.999 208.005 208.005 267.999 133.999 267.999C59.9934 267.999 0 208.005 0 133.999C0.000173178 59.9935 59.9935 0.000173223 133.999 0ZM133.417 27.9639C75.1776 27.9639 27.9648 75.1767 27.9648 133.416C27.9649 191.655 75.1777 238.867 133.417 238.867C191.656 238.867 238.868 191.655 238.868 133.416C238.868 75.1768 191.656 27.9641 133.417 27.9639Z" fill="#644100"/>
<rect x="115.356" y="238.868" width="37.2868" height="193.425" rx="12" fill="#644100"/>
</svg>
