<svg width="1500" height="700" viewBox="0 0 1500 700" fill="none" xmlns="http://www.w3.org/2000/svg">
<path d="M943.48 399.97H830.59V473.6H943.48V399.97Z" fill="#111111"/>
<path d="M943.48 305.15H830.59V378.78H943.48V305.15Z" fill="#111111"/>
<path d="M943.48 210.34H830.59V283.97H943.48V210.34Z" fill="#111111"/>
<path d="M766.43 441.63V210.27H836.44V473.6H798.4C780.75 473.6 766.43 459.27 766.43 441.63Z" fill="#111111"/>
<path d="M664.11 357.68V210.27H726.84V328.05C726.84 344.4 713.56 357.68 697.21 357.68H664.11Z" fill="#111111"/>
<path d="M649.61 315.36H664.11V245.35H649.61V315.36Z" fill="#111111"/>
<path d="M1025.48 376.97H1045.5V306.96H1025.48V376.97Z" fill="#111111"/>
<path d="M1025.94 489.74V210.27H963.21V489.74H1025.94Z" fill="#111111"/>
<path d="M1342.33 376.98V210.27H1279.6V376.98H1342.33Z" fill="#111111"/>
<path d="M422.47 419.73H157.67V489.74H422.47V419.73Z" fill="#111111"/>
<path d="M332.12 404.26H248.01V419.73H332.12V404.26Z" fill="#111111"/>
<path d="M1206.29 210.27H1141.52C1106.18 210.27 1077.53 238.919 1077.53 274.26V312.99C1077.53 348.331 1106.18 376.98 1141.52 376.98H1206.29C1241.63 376.98 1270.28 348.331 1270.28 312.99V274.26C1270.28 238.919 1241.63 210.27 1206.29 210.27Z" fill="#111111"/>
<path d="M1077.53 382.93V454.22C1077.53 473.84 1093.43 489.74 1113.05 489.74H1342.33V382.93H1077.53ZM1251.12 440.04H1168.74V432.62H1251.12V440.04Z" fill="#111111"/>
<path d="M422.47 210.27H157.67V272.37H422.47V210.27Z" fill="#111111"/>
<path d="M422.47 326.63H157.67V388.73H422.47V326.63Z" fill="#111111"/>
<path d="M157.67 326.63V307.86C157.67 307.86 253.67 292.16 342.73 210.27H422.46V288.75C422.46 288.75 319.52 341.3 232.17 350H157.67V326.63Z" fill="#111111"/>
<path d="M726.85 364.84H462.05V408.3H726.85V364.84Z" fill="#111111"/>
<path d="M726.85 446.27H462.05V489.73H726.85V446.27Z" fill="#111111"/>
<path d="M462.05 446.27V433.14C462.05 433.14 558.05 422.16 647.11 364.84H726.84V419.76C726.84 419.76 623.9 456.53 536.55 462.62H462.05V446.26V446.27Z" fill="#111111"/>
<path d="M633.57 210.27H462.05V254.12H633.57V210.27Z" fill="#111111"/>
<path d="M462.05 357.68C462.05 357.68 639.38 384.71 639.38 210.27H584.09C584.09 210.27 616.76 315.36 462.05 315.36V357.68Z" fill="#111111"/>
<path d="M462.05 260.81C462.05 260.81 573.42 256.55 594.45 210.34V291.52C594.45 291.52 504.67 312.15 462.05 308.5V260.81Z" fill="#111111"/>
<path d="M1195.42 295.66L1182.17 293.65V270.28C1182.17 265.93 1178.61 262.37 1174.26 262.37H1173.24C1168.89 262.37 1165.33 265.93 1165.33 270.28V300.22C1165.33 302.83 1166.62 305.15 1168.58 306.59C1169.85 308.05 1171.61 309.08 1173.66 309.39L1192.9 312.31C1197.48 313.01 1201.8 309.83 1202.49 305.25C1203.19 300.67 1200.01 296.35 1195.43 295.66H1195.42Z" fill="white"/>
</svg>
