<svg width="708" height="708" viewBox="0 0 708 708" fill="none" xmlns="http://www.w3.org/2000/svg" xmlns:xlink="http://www.w3.org/1999/xlink">
<circle cx="354" cy="353.993" r="245.242" fill="url(#icon2_body_grad)"/>
<path d="M354 590.91C219.95 590.91 111.019 483.355 108.8 349.831C108.779 351.214 108.758 352.603 108.758 353.993C108.758 489.433 218.554 599.235 354 599.235C489.447 599.235 599.242 489.44 599.242 353.993C599.242 352.603 599.228 351.214 599.2 349.831C596.974 483.355 488.05 590.91 354 590.91Z" fill="#FCB442"/>
<path opacity="0.8" d="M360.506 164.112H347.501C333.143 164.112 321.504 175.751 321.504 190.109V337.572C321.504 351.93 333.143 363.569 347.501 363.569H360.506C374.864 363.569 386.503 351.93 386.503 337.572V190.109C386.503 175.751 374.864 164.112 360.506 164.112Z" fill="url(#paint0_linear_11_530)"/>
<path opacity="0.8" d="M334.464 339.323L326.357 350.26C318.245 361.202 320.54 376.647 331.482 384.759L406.999 440.74C417.941 448.852 433.386 446.557 441.498 435.615L449.605 424.679C457.717 413.737 455.422 398.291 444.48 390.179L368.963 334.198C358.021 326.086 342.576 328.381 334.464 339.323Z" fill="url(#paint1_linear_11_530)"/>
<defs>
<linearGradient id="icon2_body_grad" x1="354" y1="108.751" x2="354" y2="599.235" gradientUnits="userSpaceOnUse">
  <stop offset="0" stop-color="#F9A426"/>
  <stop offset="0.5" stop-color="#F2931E"/>
  <stop offset="1" stop-color="#EB781A"/>
</linearGradient>

<linearGradient id="paint0_linear_11_530" x1="354" y1="263.834" x2="354" y2="355.017" gradientUnits="userSpaceOnUse">
<stop stop-color="#92FF3D"/>
<stop offset="0.16" stop-color="#8DFB3B"/>
<stop offset="0.32" stop-color="#80F235"/>
<stop offset="0.5" stop-color="#6BE32C"/>
<stop offset="0.67" stop-color="#4DCE20"/>
<stop offset="0.85" stop-color="#27B410"/>
<stop offset="1" stop-color="#009800"/>
</linearGradient>
<linearGradient id="paint1_linear_11_530" x1="330.421" y1="344.787" x2="445.561" y2="430.141" gradientUnits="userSpaceOnUse">
<stop stop-color="#92FF3D"/>
<stop offset="0.42" stop-color="#90FD3C"/>
<stop offset="0.57" stop-color="#89F839"/>
<stop offset="0.67" stop-color="#7DF034"/>
<stop offset="0.76" stop-color="#6CE42D"/>
<stop offset="0.83" stop-color="#56D524"/>
<stop offset="0.9" stop-color="#3BC118"/>
<stop offset="0.96" stop-color="#1BAB0B"/>
<stop offset="1" stop-color="#009800"/>
</linearGradient>

</defs>
</svg>
